<?xml version="1.0" encoding="UTF-8" standalone="no"?><!-- Generator: Gravit.io --><svg xmlns="http://www.w3.org/2000/svg" xmlns:xlink="http://www.w3.org/1999/xlink" style="isolation:isolate" viewBox="0 0 40 60" width="40pt" height="60pt"><defs><clipPath id="_clipPath_7EuxXKs7HzBacgDghHjEe25U70V7Njmj"><rect width="40" height="60"/></clipPath></defs><g clip-path="url(#_clipPath_7EuxXKs7HzBacgDghHjEe25U70V7Njmj)"><rect width="40" height="60" style="fill:rgb(170,170,102)" fill-opacity="0"/><path d=" M 20.702 18.001 L 20.702 18.001 L 20.702 18.001 Q 21.41 18.56 22.505 19.204 L 22.505 19.204 L 22.505 19.204 Q 23.771 19.053 25.016 19.053 L 25.016 19.053 L 25.016 19.053 Q 28.173 19.053 28.817 20.105 L 28.817 20.105 L 28.817 20.105 Q 29.16 20.577 28.86 21.222 L 28.86 21.222 L 28.86 21.222 Q 28.86 21.243 28.838 21.264 L 28.838 21.264 L 28.838 21.264 Q 28.817 21.286 28.795 21.308 L 28.795 21.308 L 28.795 21.33 L 28.795 21.33 Q 28.666 22.145 27.271 22.145 L 27.271 22.145 L 27.271 22.145 Q 26.24 22.145 24.802 21.716 L 24.802 21.716 L 24.802 21.716 Q 23.364 21.286 22.01 20.577 L 22.01 20.577 L 22.01 20.577 Q 17.266 21.093 13.594 22.36 L 13.594 22.36 L 13.594 22.36 Q 10.31 27.985 8.399 27.985 L 8.399 27.985 L 8.399 27.985 Q 8.076 27.985 7.797 27.834 L 7.797 27.834 L 7.282 27.577 L 7.282 27.577 Q 7.261 27.556 7.154 27.469 L 7.154 27.469 L 7.154 27.469 Q 6.938 27.255 7.025 26.697 L 7.025 26.697 L 7.025 26.697 Q 7.217 25.839 8.228 24.733 L 8.228 24.733 L 8.228 24.733 Q 9.236 23.627 11.061 22.661 L 11.061 22.661 L 11.061 22.661 Q 11.361 22.467 11.555 22.789 L 11.555 22.789 L 11.555 22.789 Q 11.598 22.833 11.598 22.875 L 11.598 22.875 L 11.598 22.875 Q 12.714 21.051 13.896 18.646 L 13.896 18.646 L 13.896 18.646 Q 15.355 15.726 16.128 13.021 L 16.128 13.021 L 16.128 13.021 Q 15.613 11.26 15.473 9.597 L 15.473 9.597 L 15.473 9.597 Q 15.334 7.932 15.613 6.859 L 15.613 6.859 L 15.613 6.859 Q 15.849 6 16.515 6 L 16.515 6 L 16.965 6 L 16.987 6 L 16.987 6 Q 17.481 6 17.738 6.322 L 17.738 6.322 L 17.738 6.322 Q 18.124 6.774 17.931 7.782 L 17.931 7.782 L 17.931 7.782 Q 17.889 7.911 17.845 7.954 L 17.845 7.954 L 17.845 7.954 Q 17.867 8.019 17.867 8.125 L 17.867 8.125 L 17.867 8.769 L 17.867 8.769 Q 17.824 11.41 17.566 12.892 L 17.566 12.892 L 17.566 12.892 Q 18.747 16.412 20.702 18.001 Z  M 8.334 26.826 L 8.334 26.826 L 8.334 26.826 Q 9.451 26.31 11.276 23.434 L 11.276 23.434 L 11.276 23.434 Q 10.181 24.292 9.398 25.237 L 9.398 25.237 L 9.398 25.237 Q 8.613 26.182 8.334 26.826 Z  M 16.879 7.03 L 16.879 7.074 L 16.879 7.074 Q 16.558 7.975 16.837 9.907 L 16.837 9.907 L 16.837 9.907 Q 16.858 9.757 16.987 8.962 L 16.987 8.962 L 16.987 8.962 Q 16.987 8.899 17.137 8.04 L 17.137 8.04 L 17.137 8.04 Q 17.159 7.954 17.223 7.868 L 17.223 7.868 L 17.223 7.868 Q 17.202 7.846 17.202 7.825 L 17.202 7.825 L 17.202 7.825 Q 17.18 7.782 17.18 7.761 L 17.18 7.761 L 17.18 7.761 Q 17.159 7.288 16.901 6.987 L 16.901 6.987 L 16.901 6.987 Q 16.901 7.008 16.879 7.03 L 16.879 7.03 Z  M 14.217 21.264 L 14.217 21.264 L 14.217 21.264 Q 17.116 20.105 20.314 19.526 L 20.314 19.526 L 20.314 19.526 Q 20.272 19.504 20.035 19.322 L 20.035 19.322 L 20.035 19.322 Q 19.799 19.139 19.692 19.032 L 19.692 19.032 L 19.692 19.032 Q 18.061 17.594 16.965 15.253 L 16.965 15.253 L 16.965 15.253 Q 16.386 17.099 15.183 19.483 L 15.183 19.483 L 15.183 19.483 Q 14.539 20.685 14.217 21.264 Z  M 28.087 20.921 L 28.087 20.921 L 28.087 20.921 Q 27.572 20.406 25.081 20.406 L 25.081 20.406 L 25.081 20.406 Q 26.712 21.007 27.743 21.007 L 27.743 21.007 L 27.743 21.007 Q 28.043 21.007 28.13 20.985 L 28.13 20.985 L 28.13 20.985 Q 28.13 20.964 28.087 20.921 Z " fill="rgb(255,255,255)"/><path d=" M 10.714 54.043 C 10.32 54.043 10 53.723 10 53.329 L 10 37.614 C 10 37.22 10.32 36.9 10.714 36.9 L 29.286 36.9 C 29.68 36.9 30 37.22 30 37.614 L 30 53.329 C 30 53.723 29.68 54.043 29.286 54.043 L 10.714 54.043 Z  M 17.757 48.943 L 16.218 47.404 C 15.94 47.126 15.487 47.126 15.209 47.404 L 11.429 51.187 L 28.81 51.187 L 23.406 44.702 C 23.27 44.538 23.069 44.444 22.857 44.444 C 22.644 44.444 22.443 44.538 22.307 44.702 L 18.811 48.896 C 18.683 49.05 18.495 49.143 18.294 49.152 C 18.094 49.161 17.899 49.085 17.757 48.943 L 17.757 48.943 Z  M 14.286 42.614 C 14.286 43.38 14.694 44.088 15.358 44.47 C 16.022 44.853 16.838 44.853 17.502 44.47 C 18.165 44.086 18.573 43.378 18.573 42.613 C 18.573 41.429 17.613 40.47 16.429 40.47 C 15.245 40.47 14.286 41.43 14.286 42.614 L 14.286 42.614 Z " fill="rgb(255,255,255)"/><path d=" M 14 26.4 L 20.001 33.6 L 26 26.4 L 14 26.4 Z " fill="rgb(255,255,255)"/></g></svg>